<svg width="18" height="20" viewBox="0 0 18 20" fill="none" xmlns="http://www.w3.org/2000/svg">
<path d="M8.49262 0.300572C8.8057 0.115115 9.1948 0.114355 9.50859 0.298587L17.5063 4.99414C17.8121 5.1737 18 5.50183 18 5.85649V19C18 19.5523 17.5523 20 17 20H12.0478C11.4955 20 11.0478 19.5523 11.0478 19V14.0291C11.0478 13.4768 10.6001 13.0291 10.0478 13.0291H7.99681C7.44452 13.0291 6.99681 13.4768 6.99681 14.0291V19C6.99681 19.5523 6.54909 20 5.99681 20H1C0.447715 20 0 19.5523 0 19V5.90133C0 5.54806 0.186392 5.221 0.490334 5.04096L8.49262 0.300572Z" fill="white"/>
</svg>
