<svg width="20" height="20" viewBox="0 0 20 20" fill="none" xmlns="http://www.w3.org/2000/svg">
<path d="M19.0225 18.2168L14.2608 13.2662C15.4851 11.8113 16.1559 9.98069 16.1559 8.07499C16.1559 3.62251 12.5321 0 8.07796 0C3.62384 0 0 3.62251 0 8.07499C0 12.5275 3.62384 16.15 8.07796 16.15C9.7501 16.15 11.3436 15.6458 12.7059 14.6888L17.5039 19.677C17.7044 19.8852 17.9742 20 18.2632 20C18.5368 20 18.7964 19.8957 18.9934 19.7061C19.412 19.3034 19.4254 18.6357 19.0225 18.2168ZM8.07796 2.10652C11.3703 2.10652 14.0486 4.78391 14.0486 8.07499C14.0486 11.3661 11.3703 14.0435 8.07796 14.0435C4.78567 14.0435 2.10729 11.3661 2.10729 8.07499C2.10729 4.78391 4.78567 2.10652 8.07796 2.10652Z" fill="white"/>
<rect x="3.79883" y="3.79883" width="8.54701" height="8.54701" rx="4.2735" fill="white"/>
</svg>
